first trial
nRows=35
nColumns=38

# SIMM Motion File Header:
name Sujet_06_velo100.mvnx
datacolumns 38
datarows 35
otherdata 1
range 11.6490 12.2160
endheader
time pelvis_tilt  pelvis_list  pelvis_rotation  pelvis_tx  pelvis_ty  pelvis_tz  hip_flexion_r  hip_adduction_r  hip_rotation_r  knee_angle_r  ankle_angle_r  subtalar_angle_r  mtp_angle_r  hip_flexion_l  hip_adduction_l  hip_rotation_l  knee_angle_l  ankle_angle_l  subtalar_angle_l  mtp_angle_l  lumbar_extension  lumbar_bending  lumbar_rotation  arm_flex_r  arm_add_r  arm_rot_r  elbow_flex_r  pro_sup_r  wrist_flex_r  wrist_dev_r  arm_flex_l  arm_add_l  arm_rot_l  elbow_flex_l  pro_sup_l  wrist_flex_l  wrist_dev_l
11.6490	-9.1423	3.1896	-11.3251	0.0000	1.2500	-0.0000	52.9926	7.3266	-5.1866	51.8343	-3.1208	-8.0480	0.0000	65.5699	-9.4959	1.2244	101.7739	-14.8232	0.9983	0.0000	-14.2394	-1.5475	-1.0712	85.6455	12.3461	18.5711	14.3435	118.7485	-11.4797	0.8251	88.3273	-12.0885	24.3744	21.2824	117.1757	-24.5937	-7.1962	
11.6660	-9.0626	3.1861	-10.8992	0.0000	1.2500	-0.0000	49.6903	5.8295	-5.4509	47.9883	-6.3627	-6.3444	0.0000	68.8596	-9.2017	2.1198	105.2787	-11.2078	0.2214	-0.0000	-14.2131	-1.5832	-1.1034	85.2337	11.8484	18.9307	14.2815	118.3209	-11.4672	0.2301	88.8050	-11.4160	24.3061	20.7090	117.9697	-24.4007	-7.0777	
11.6820	-8.9364	3.1937	-10.5441	0.0000	1.2500	-0.0000	46.7473	4.2484	-5.7403	45.2040	-9.7750	-4.3325	0.0000	71.9834	-8.7687	2.9384	108.0292	-7.1821	-0.7921	0.0000	-14.2124	-1.6354	-1.0963	84.7706	11.1652	19.4382	14.2724	117.8263	-11.4047	-0.3935	89.3397	-10.5729	24.0467	19.9247	118.9434	-24.1359	-6.9083	
11.6990	-8.8109	3.2304	-10.3670	0.0000	1.2500	-0.0000	44.4434	2.9027	-6.0580	43.8052	-12.7004	-2.6075	0.0000	74.7217	-8.2678	3.5695	109.6884	-3.6067	-1.9379	0.0000	-14.2519	-1.7174	-1.0824	84.4175	10.5793	19.7868	14.3034	117.4339	-11.3549	-0.8815	89.8332	-9.9738	23.9264	19.3665	119.6841	-23.8997	-6.7292	
11.7160	-8.7039	3.3264	-10.4623	0.0000	1.2500	-0.0000	42.8841	1.8773	-6.4665	43.9226	-14.8826	-1.3219	0.0000	77.1213	-7.7733	4.0208	110.1497	-0.7090	-3.3197	-0.0000	-14.3494	-1.8578	-1.0746	84.2408	10.2113	19.7915	14.3929	117.2586	-11.3601	-1.1516	90.2547	-9.8681	24.3108	19.2847	119.8404	-23.7279	-6.5468	
11.7320	-8.5982	3.4528	-10.7355	0.0000	1.2500	-0.0000	41.9720	1.0561	-6.8244	45.3744	-16.5492	-0.2534	-0.0000	79.1418	-7.2599	4.3168	109.5238	1.7201	-4.7815	0.0000	-14.4863	-2.0286	-1.0607	84.1737	9.9379	19.6396	14.5212	117.1845	-11.3806	-1.2879	90.6436	-10.0047	24.8518	19.4404	119.7609	-23.5845	-6.3539	
11.7490	-8.4873	3.5397	-11.0090	0.0000	1.2500	-0.0000	41.6892	0.4529	-6.8071	48.0156	-17.7229	0.5525	-0.0000	80.4386	-6.6598	4.3784	107.8122	3.5129	-5.9127	0.0000	-14.6228	-2.1583	-1.0342	84.1780	9.6737	19.5849	14.6134	117.0345	-11.3599	-1.3750	91.0102	-10.0447	24.8207	19.5420	120.0768	-23.4622	-6.1704	
11.7660	-8.3576	3.5687	-11.2296	0.0000	1.2500	-0.0000	42.1022	0.0980	-6.2146	52.0559	-18.3196	1.0339	0.0000	80.9262	-5.8601	4.1749	104.9153	4.5489	-6.6239	-0.0000	-14.7576	-2.2261	-0.9834	84.2581	9.3630	19.7706	14.6522	116.6869	-11.2628	-1.4252	91.3743	-9.8078	23.5924	19.4656	121.3203	-23.3580	-5.9872	
11.7820	-8.2220	3.5583	-11.4504	0.0000	1.2500	-0.0000	43.1501	-0.0154	-5.2362	57.2943	-18.4041	1.2119	0.0000	80.7023	-4.9764	3.7501	100.9904	4.9935	-7.1285	-0.0000	-14.8926	-2.2527	-0.9196	84.4112	9.0607	20.0544	14.6536	116.2638	-11.1239	-1.4253	91.7272	-9.4803	21.7916	19.3351	122.9600	-23.2750	-5.8123	
11.7990	-8.1135	3.4931	-11.6522	0.0000	1.2500	-0.0000	44.6223	0.0702	-4.1436	62.9793	-18.2193	1.1292	-0.0000	79.6948	-4.2721	3.1336	96.4062	5.1150	-7.4739	-0.0000	-14.9940	-2.2274	-0.8703	84.5882	8.8475	20.2610	14.5924	115.9550	-10.9906	-1.4210	92.0211	-9.2693	20.5610	19.2271	124.0270	-23.2140	-5.6921	
11.8160	-8.0393	3.3449	-11.8190	0.0000	1.2500	-0.0000	46.5130	0.3918	-2.9047	69.1173	-17.7605	0.7105	0.0000	77.7966	-3.8157	2.3424	91.1057	4.9820	-7.6112	-0.0000	-15.0494	-2.1252	-0.8527	84.7966	8.7654	20.2980	14.4254	115.8380	-10.8706	-1.4197	92.2440	-9.2745	20.5015	19.1631	123.9901	-23.1654	-5.6543	
11.8320	-7.9917	3.1414	-11.9667	0.0000	1.2500	-0.0000	48.8176	0.9428	-1.5823	75.6734	-17.0389	0.0155	-0.0000	75.1135	-3.5014	1.3641	85.1150	4.5327	-7.5287	-0.0000	-15.0716	-1.9706	-0.8495	85.0289	8.7730	20.2572	14.1975	115.8358	-10.7561	-1.4136	92.3963	-9.3939	21.0110	19.1207	123.3794	-23.1380	-5.6715	
11.8490	-7.9805	2.9516	-12.1262	0.0000	1.2500	-0.0000	51.3322	1.5734	-0.5814	81.8608	-16.3228	-0.7124	0.0000	71.8872	-3.3184	0.1729	78.8850	3.8155	-7.2963	0.0000	-15.0648	-1.8276	-0.8373	85.2137	8.8268	20.2393	14.0162	115.9049	-10.6717	-1.4256	92.4362	-9.5286	21.4263	19.1074	122.8159	-23.1593	-5.7063	
11.8660	-8.0215	2.7795	-12.3252	0.0000	1.2500	-0.0000	54.0325	2.2013	-0.0967	87.4412	-15.9495	-1.4376	0.0000	68.0245	-3.2358	-1.3848	72.3459	2.8658	-6.9899	0.0000	-15.0186	-1.7079	-0.8037	85.3054	8.9071	20.3018	13.9387	116.0340	-10.6407	-1.4829	92.3214	-9.6566	21.4211	19.1479	122.5805	-23.2519	-5.7301	
11.8820	-8.0990	2.6206	-12.5364	0.0000	1.2500	-0.0000	56.9500	2.8665	0.0539	92.6882	-15.5979	-2.2201	-0.0000	63.6160	-3.1861	-3.1827	65.5278	1.6393	-6.5597	-0.0000	-14.9432	-1.5992	-0.7612	85.3492	9.0334	20.3870	13.9071	116.2339	-10.6401	-1.5585	92.0937	-9.7986	21.3216	19.2179	122.3923	-23.3934	-5.7715	
11.8990	-8.1765	2.5319	-12.7073	0.0000	1.2500	-0.0000	59.9697	3.5859	0.0528	97.6089	-14.5306	-2.9215	-0.0000	59.1746	-3.1561	-4.8211	59.0444	0.0520	-5.9027	-0.0000	-14.8729	-1.5299	-0.7232	85.4095	9.2207	20.4223	13.8555	116.4948	-10.6254	-1.5934	91.8381	-9.9195	21.4433	19.2522	122.0306	-23.5448	-5.8785	
11.9160	-8.2472	2.5708	-12.8223	0.0000	1.2500	-0.0000	63.1517	4.3671	-0.0858	102.4103	-12.2972	-3.4297	-0.0000	54.6794	-3.2362	-6.1881	52.8416	-2.1170	-4.8465	0.0000	-14.8155	-1.5347	-0.6909	85.5162	9.5190	20.4224	13.7269	116.8007	-10.5683	-1.5838	91.5805	-9.9922	22.0150	19.1922	121.3317	-23.6993	-6.0932	
11.9320	-8.3186	2.6801	-12.8965	0.0000	1.2500	-0.0000	66.4398	5.1889	-0.3778	106.9015	-9.3273	-3.8501	0.0000	50.1350	-3.3669	-7.4012	47.0038	-4.6748	-3.5700	0.0000	-14.7627	-1.5791	-0.6629	85.6390	9.8783	20.3718	13.5768	117.1671	-10.4973	-1.5347	91.2966	-10.0458	22.8080	19.0848	120.4559	-23.8647	-6.3743	
11.9490	-8.3758	2.7440	-12.9246	0.0000	1.2500	-0.0000	69.5413	6.0422	-0.6763	110.4753	-6.1897	-4.3448	-0.0000	46.0962	-3.4158	-8.3844	42.3581	-7.0627	-2.4819	0.0000	-14.7244	-1.5875	-0.6482	85.7528	10.1635	20.1533	13.5068	117.6314	-10.4536	-1.3998	90.9974	-10.1282	23.4511	19.0332	119.6726	-24.0221	-6.6438	
11.9660	-8.4136	2.7111	-12.9062	0.0000	1.2500	-0.0000	72.4425	6.9603	-0.9111	113.0127	-2.7993	-4.9255	0.0000	42.6209	-3.3686	-9.1103	39.0017	-9.1267	-1.7139	-0.0000	-14.6925	-1.5174	-0.6531	85.8184	10.3406	19.7019	13.5635	118.2434	-10.4572	-1.1407	90.6531	-10.2554	23.7810	19.0845	119.0871	-24.1673	-6.8899	
11.9820	-8.4370	2.6331	-12.8417	0.0000	1.2500	-0.0000	75.1610	7.9048	-1.1484	114.6258	0.7611	-5.6188	0.0000	39.6542	-3.3282	-9.6012	36.8321	-10.9991	-1.1130	-0.0000	-14.6750	-1.4114	-0.6715	85.8745	10.4422	19.0836	13.6905	118.9507	-10.4885	-0.7942	90.2924	-10.4079	23.9608	19.2026	118.5977	-24.3042	-7.1233	
11.9990	-8.4462	2.5486	-12.7272	0.0000	1.2500	-0.0000	77.4476	8.7648	-1.4283	115.0430	3.6610	-6.5218	-0.0000	37.5884	-3.3681	-9.8513	36.3593	-12.5302	-0.6471	0.0000	-14.7064	-1.3216	-0.6925	86.0133	10.4345	18.3780	13.8365	119.6383	-10.5288	-0.4260	90.0144	-10.5811	24.1085	19.3745	118.1667	-24.4245	-7.2983	
12.0160	-8.4368	2.4402	-12.5125	0.0000	1.2500	-0.0000	79.3410	9.5257	-1.7052	114.0764	5.5544	-7.7503	0.0000	36.6183	-3.4921	-9.8858	37.9741	-13.4463	-0.3788	0.0000	-14.8232	-1.2484	-0.7133	86.3097	10.2429	17.5402	14.0339	120.3154	-10.5839	-0.0311	89.8664	-10.7989	24.2580	19.6519	117.7747	-24.5327	-7.3861	
12.0320	-8.4138	2.3255	-12.2476	0.0000	1.2500	-0.0000	80.7996	10.2070	-1.9941	111.9139	6.7671	-9.0655	-0.0000	36.5505	-3.7173	-9.6809	41.2827	-14.0146	-0.2239	0.0000	-14.9888	-1.1906	-0.7361	86.6861	9.9431	16.6166	14.2441	120.9715	-10.6486	0.3852	89.8015	-11.0399	24.3742	19.9826	117.4412	-24.6237	-7.4158	
12.0490	-8.3891	2.2960	-12.0786	0.0000	1.2500	-0.0000	81.4488	10.7572	-2.4129	108.8482	7.4901	-10.0377	0.0000	37.1973	-4.1223	-9.1565	45.6173	-14.9064	0.0773	0.0000	-15.1287	-1.1993	-0.7591	87.0082	9.7264	15.8218	14.3266	121.4689	-10.6886	0.7406	89.7793	-11.2332	24.4726	20.1946	117.1861	-24.6753	-7.4283	
12.0660	-8.3713	2.4238	-12.1123	0.0000	1.2500	-0.0000	81.0983	11.2226	-3.0993	104.8034	7.8093	-10.5329	-0.0000	38.6485	-4.7562	-8.1795	51.0890	-16.5733	0.7643	-0.0000	-15.2213	-1.3226	-0.7831	87.2448	9.6745	15.2057	14.1997	121.7467	-10.6893	1.0201	89.8047	-11.3512	24.5706	20.1925	117.0082	-24.6695	-7.4302	
12.0820	-8.3519	2.6370	-12.2420	0.0000	1.2500	-0.0000	79.9299	11.5791	-3.8950	99.8221	7.6608	-10.7597	0.0000	40.8316	-5.5280	-6.8545	57.5661	-18.5934	1.6357	-0.0000	-15.2881	-1.5131	-0.8087	87.4298	9.7051	14.7171	13.9613	121.8714	-10.6660	1.2382	89.8725	-11.4210	24.6522	20.0724	116.9080	-24.6243	-7.4145	
12.0990	-8.3174	2.8116	-12.2935	0.0000	1.2500	-0.0000	78.1281	11.6696	-4.4851	94.3799	7.0245	-10.8452	-0.0000	43.3123	-6.3125	-5.4635	64.0433	-20.2973	2.2312	0.0000	-15.3198	-1.6785	-0.8336	87.5306	9.7634	14.4182	13.7499	121.8979	-10.6281	1.3577	89.9272	-11.4537	24.6828	19.9493	116.9079	-24.5714	-7.4009	
12.1160	-8.2490	2.9079	-12.2052	0.0000	1.2500	-0.0000	75.6626	11.4137	-4.7136	88.5092	5.8204	-10.8638	-0.0000	45.9901	-7.1037	-3.9716	70.3097	-21.5878	2.2552	0.0000	-15.3048	-1.7880	-0.8525	87.5518	9.8248	14.3015	13.5863	121.9137	-10.5577	1.3559	89.9367	-11.4530	24.6419	19.8225	117.0110	-24.5175	-7.4073	
12.1320	-8.1651	2.9652	-12.0387	0.0000	1.2500	-0.0000	72.5703	10.8853	-4.7829	82.2031	4.1285	-10.7503	-0.0000	48.9781	-7.8639	-2.4025	76.6204	-22.5315	1.9329	0.0000	-15.2550	-1.8725	-0.8703	87.4899	9.9150	14.3746	13.4501	121.8293	-10.4703	1.2562	89.9330	-11.4157	24.5496	19.6925	117.2150	-24.4560	-7.4160	
12.1490	-8.1065	2.9782	-11.8049	0.0000	1.2500	-0.0000	69.1396	10.1658	-4.9322	75.9054	2.1636	-10.4001	-0.0000	52.1393	-8.4731	-1.1541	82.6585	-22.6790	1.5618	0.0000	-15.1976	-1.9321	-0.8997	87.2989	10.0554	14.7236	13.4132	121.4329	-10.4243	1.0912	89.9568	-11.3418	24.4316	19.6759	117.5345	-24.3987	-7.3946	
12.1660	-8.0951	2.9165	-11.4560	0.0000	1.2500	-0.0000	65.3031	9.2673	-5.3479	69.5386	-0.1052	-9.7890	0.0000	55.4699	-8.9422	-0.5524	88.3838	-21.8165	1.2286	-0.0000	-15.1416	-1.9510	-0.9549	86.9122	10.2963	15.5279	13.5540	120.4745	-10.4645	0.8794	90.0148	-11.2288	24.2931	19.8843	117.9985	-24.3568	-7.3241	
12.1820	-8.1103	2.8108	-11.0396	0.0000	1.2500	-0.0000	61.1254	8.2329	-5.9070	63.2038	-2.6563	-8.9561	-0.0000	58.9508	-9.3119	-0.2967	93.7636	-20.1661	0.8648	0.0000	-15.0779	-1.9453	-1.0222	86.3930	10.5827	16.6114	13.7664	119.2056	-10.5490	0.5987	90.1000	-11.0784	24.1289	20.2040	118.5755	-24.3188	-7.2231	
12.1990	-8.1277	2.7481	-10.7084	0.0000	1.2500	-0.0000	57.0907	7.1574	-6.3395	57.5984	-5.2053	-7.8711	-0.0000	62.4120	-9.5190	0.1438	98.4938	-17.9278	0.5528	0.0000	-15.0054	-1.9623	-1.0734	85.8946	10.7831	17.5241	13.8654	118.1628	-10.6062	0.2242	90.2328	-10.8967	23.9488	20.4137	119.1890	-24.2629	-7.1161	
12.2160	-8.1416	2.7655	-10.5020	0.0000	1.2500	-0.0000	53.2198	5.9357	-6.4780	52.7692	-7.7955	-6.2972	0.0000	65.8915	-9.4834	1.0446	102.6416	-14.8878	0.4896	-0.0000	-14.9109	-2.0175	-1.0953	85.4644	10.8553	18.0692	13.7383	117.6131	-10.5838	-0.3141	90.4326	-10.6640	23.7904	20.3888	119.8068	-24.1782	-7.0206	
